<?xml version="1.0" encoding="UTF-8" standalone="no"?>
<!-- Created with Inkscape (http://www.inkscape.org/) -->

<svg
   xmlns:dc="http://purl.org/dc/elements/1.1/"
   xmlns:cc="http://creativecommons.org/ns#"
   xmlns:rdf="http://www.w3.org/1999/02/22-rdf-syntax-ns#"
   xmlns:svg="http://www.w3.org/2000/svg"
   xmlns="http://www.w3.org/2000/svg"
   xmlns:xlink="http://www.w3.org/1999/xlink"
   xmlns:sodipodi="http://sodipodi.sourceforge.net/DTD/sodipodi-0.dtd"
   xmlns:inkscape="http://www.inkscape.org/namespaces/inkscape"
   width="310mm"
   height="216mm"
   viewBox="0 0 310 216"
   version="1.1"
   id="svg8"
   inkscape:version="0.92.1 r15371"
   sodipodi:docname="cover2.svg">
  <defs
     id="defs2">
    <clipPath
       id="clip2">
      <path
         id="path4488"
         d="m 602,135 h 619.7305 V 252 H 602 Z m 0,0"
         inkscape:connector-curvature="0" />
    </clipPath>
    <clipPath
       id="clip3">
      <path
         id="path4491"
         d="m 603,0 h 15 v 858.89844 h -15 z m 0,0"
         inkscape:connector-curvature="0" />
    </clipPath>
  </defs>
  <sodipodi:namedview
     id="base"
     pagecolor="#ffffff"
     bordercolor="#666666"
     borderopacity="1.0"
     inkscape:pageopacity="0.0"
     inkscape:pageshadow="2"
     inkscape:zoom="0.66298111"
     inkscape:cx="744.28387"
     inkscape:cy="458.672"
     inkscape:document-units="mm"
     inkscape:current-layer="layer1"
     showgrid="false"
     width="303mm"
     inkscape:window-width="1920"
     inkscape:window-height="1017"
     inkscape:window-x="1912"
     inkscape:window-y="-8"
     inkscape:window-maximized="1"
     inkscape:snap-global="false"
     showguides="false" />
  <metadata
     id="metadata5">
    <rdf:RDF>
      <cc:Work
         rdf:about="">
        <dc:format>image/svg+xml</dc:format>
        <dc:type
           rdf:resource="http://purl.org/dc/dcmitype/StillImage" />
        <dc:title />
      </cc:Work>
    </rdf:RDF>
  </metadata>
  <g
     inkscape:label="Ebene 1"
     inkscape:groupmode="layer"
     id="layer1"
     transform="translate(0,-81)">
    <image
       sodipodi:absref="C:\Google Drive\thesis_korrigiert\cover\2.200_8_configuration.png"
       xlink:href="2.200_8_configuration.png"
       y="80.427536"
       x="-17.831491"
       id="image889"
       preserveAspectRatio="none"
       height="230.34187"
       width="345.51282"
       style="stroke-width:4.59462023" />
    <g
       style="clip-rule:nonzero;stroke-width:1.40277922"
       clip-path="url(#clip2)"
       id="g4511"
       transform="matrix(0.25148491,0,0,0.25148491,0,81)">
      <path
         inkscape:connector-curvature="0"
         style="fill:#cfebf5;fill-opacity:1;fill-rule:nonzero;stroke:none;stroke-width:1.40277922"
         d="m 554.56548,-235.74577 h 664.55472 v 115.89453 H 554.56548 Z m 0,0"
         id="path4509" />
    </g>
    <text
       id="text5561"
       y="128.3584"
       x="167.22935"
       style="font-style:normal;font-weight:normal;font-size:9.03030872px;line-height:1.25;font-family:sans-serif;letter-spacing:0px;word-spacing:0px;fill:#ffffff;fill-opacity:1;stroke:none;stroke-width:0.37115192"
       xml:space="preserve"><tspan
         id="tspan5563"
         style="font-style:normal;font-variant:normal;font-weight:normal;font-stretch:normal;font-size:12.69999981px;font-family:Tahoma;-inkscape-font-specification:Tahoma;text-align:start;text-anchor:start;fill:#ffffff;fill-opacity:1;stroke-width:0.37115192"
         y="136.59702"
         x="167.22935"
         sodipodi:role="line" /></text>
    <flowRoot
       xml:space="preserve"
       id="flowRoot7136"
       style="font-style:normal;font-weight:normal;font-size:40px;line-height:1.25;font-family:sans-serif;letter-spacing:0px;word-spacing:0px;fill:#000000;fill-opacity:1;stroke:none"
       transform="matrix(0.26458333,0,0,0.26458333,0,81)"><flowRegion
         id="flowRegion7138"><rect
           id="rect7140"
           width="501.00238"
           height="211.224"
           x="626.68939"
           y="20.360201" /></flowRegion><flowPara
         id="flowPara7142" /></flowRoot>    <rect
       style="opacity:1;fill:#8e0505;fill-opacity:1;stroke:none;stroke-width:1;stroke-linecap:round;stroke-linejoin:round;stroke-miterlimit:4;stroke-dasharray:none;stroke-dashoffset:0;stroke-opacity:1"
       id="rect7026"
       width="165.04915"
       height="32.354305"
       x="152.56795"
       y="123.11998" />
    <text
       xml:space="preserve"
       style="font-style:normal;font-weight:normal;font-size:9.55190372px;line-height:1.25;font-family:sans-serif;letter-spacing:0px;word-spacing:0px;fill:#ffffff;fill-opacity:1;stroke:none;stroke-width:1.08256602"
       x="240.2028"
       y="137.0415"
       id="text7294"><tspan
         sodipodi:role="line"
         x="240.2028"
         y="137.0415"
         id="tspan7288"
         style="font-size:6.89370918px;line-height:0;fill:#ffffff;fill-opacity:1;stroke-width:1.08256602"><tspan
           x="240.2028"
           y="137.0415"
           style="font-style:normal;font-variant:normal;font-weight:bold;font-stretch:normal;font-size:6.89370918px;line-height:0;font-family:sans-serif;-inkscape-font-specification:'sans-serif, Bold';font-variant-ligatures:normal;font-variant-caps:normal;font-variant-numeric:normal;font-feature-settings:normal;text-align:center;writing-mode:lr-tb;text-anchor:middle;fill:#ffffff;fill-opacity:1;stroke-width:1.08256602"
           id="tspan7284"
           dx="0 0 0 0 0 0 0 0 0 0 0 0 0 0 0 0 0 0 0 0 0 0 0 0 0 0 0 0 0">Current-Induced Switching in</tspan></tspan><tspan
         sodipodi:role="line"
         x="233.56833"
         y="148.98143"
         id="tspan7292"
         style="font-size:6.89370918px;line-height:0;fill:#ffffff;fill-opacity:1;stroke-width:1.08256602"><tspan
           x="233.56833"
           y="148.98143"
           style="font-style:normal;font-variant:normal;font-weight:bold;font-stretch:normal;font-size:6.89370918px;line-height:0;font-family:sans-serif;-inkscape-font-specification:'sans-serif, Bold';font-variant-ligatures:normal;font-variant-caps:normal;font-variant-numeric:normal;font-feature-settings:normal;text-align:center;writing-mode:lr-tb;text-anchor:middle;fill:#ffffff;fill-opacity:1;stroke-width:1.08256602"
           id="tspan7290"
           dy="-3.1589308">Superconducting Break Junctions</tspan></tspan></text>
    <g
       transform="matrix(0.24951375,0,0,0.24951375,166.44468,35.569033)"
       id="layer1-4"
       inkscape:label="Ebene 1"
       style="stroke-width:4.00779486">
      <g
         id="g4493"
         inkscape:label="ink_ext_XXXXXX"
         transform="matrix(0.35277777,0,0,-0.35277777,192.63108,402.34516)"
         style="stroke-width:4.00779486">
        <g
           id="g4495"
           transform="scale(0.1)"
           style="stroke-width:4.00779486">
          <path
             d="m 2134.07,3781.23 c -5.4,23.36 -8.09,41.33 -8.09,110.5 v 360.26 h 35.04 v -358.45 c 0,-79.07 5.38,-107.81 19.76,-137.46 28.75,-63.78 89.84,-96.13 173.38,-96.13 84.45,0 144.65,32.35 174.3,96.13 13.48,28.75 18.86,57.5 18.86,137.46 v 358.45 h 35.04 v -360.26 c 0,-68.27 -2.69,-86.24 -8.09,-110.5 -22.46,-104.2 -105.11,-152.72 -220.11,-152.72 -114.99,0 -197.63,48.52 -220.09,152.72"
             style="fill:#231f20;fill-opacity:1;fill-rule:nonzero;stroke:none;stroke-width:4.00779486"
             id="path4497-2"
             inkscape:connector-curvature="0" />
          <path
             d="m 3025.06,3641.09 h -33.24 v 233.58 c 0,105.11 -12.57,174.28 -116.79,174.28 -44.01,0 -75.46,-16.16 -97.91,-38.63 -27.86,-29.64 -39.54,-71.87 -39.54,-110.5 v -258.73 h -33.24 v 427.62 h 33.24 v -79.94 h 0.9 c 15.27,42.21 61.09,90.73 144.65,90.73 61.08,0 98.82,-23.36 120.37,-61.99 15.27,-27.85 21.56,-64.69 21.56,-115.89 v -260.53"
             style="fill:#231f20;fill-opacity:1;fill-rule:nonzero;stroke:none;stroke-width:4.00779486"
             id="path4499"
             inkscape:connector-curvature="0" />
          <path
             d="m 3201.79,4148.67 h -33.24 v 81.76 h 33.24 z m 0,-507.58 h -33.24 v 427.62 h 33.24 v -427.62"
             style="fill:#231f20;fill-opacity:1;fill-rule:nonzero;stroke:none;stroke-width:4.00779486"
             id="path4501"
             inkscape:connector-curvature="0" />
          <path
             d="m 3480.82,3641.09 h -26.96 l -155.42,427.62 h 36.83 l 106.01,-291.97 c 12.58,-34.14 25.15,-77.26 27.85,-87.14 h 0.89 c 2.7,9.88 16.18,51.21 30.56,88.04 l 111.39,291.07 h 35.04 l -166.19,-427.62"
             style="fill:#231f20;fill-opacity:1;fill-rule:nonzero;stroke:none;stroke-width:4.00779486"
             id="path4503"
             inkscape:connector-curvature="0" />
          <path
             d="m 4073.36,3864.79 v -8.09 h -333.3 v -8.09 c 0,-104.2 52.12,-187.76 159.92,-187.76 92.53,0 130.26,56.6 152.72,98.83 l 23.36,-23.36 c -22.47,-44.02 -76.36,-106.01 -176.99,-106.01 -117.68,0 -194.94,83.55 -194.94,222.8 0,134.75 73.67,226.39 188.66,226.39 114.1,0 180.57,-89.84 180.57,-214.71 z m -332.4,20.66 h 295.57 c -0.89,81.75 -52.1,165.3 -143.74,165.3 -85.34,0 -141.04,-61.98 -151.83,-165.3"
             style="fill:#231f20;fill-opacity:1;fill-rule:nonzero;stroke:none;stroke-width:4.00779486"
             id="path4505-25"
             inkscape:connector-curvature="0" />
          <path
             d="m 4390.89,4044.46 c -11.68,2.7 -22.46,3.59 -32.33,3.59 -80.86,0 -125.79,-79.05 -125.79,-150.92 v -256.04 h -33.24 v 427.62 h 33.24 v -88.03 c 12.59,47.61 61.1,98.82 123.09,98.82 10.78,0 23.35,0 35.03,-4.49 v -30.55"
             style="fill:#231f20;fill-opacity:1;fill-rule:nonzero;stroke:none;stroke-width:4.00779486"
             id="path4507"
             inkscape:connector-curvature="0" />
          <path
             d="m 4719.94,3988.77 c -29.64,38.62 -76.36,61.98 -128.47,61.98 -61.09,-0.9 -108.7,-28.75 -108.7,-81.75 0,-52.11 33.25,-70.07 97.03,-85.35 l 51.21,-12.58 c 74.56,-17.96 132.06,-42.22 132.06,-115.89 0,-78.15 -65.59,-124.87 -159.92,-124.87 -82.65,0 -142.84,41.32 -170.69,78.15 l 23.36,25.16 c 31.45,-41.32 81.75,-73.67 150.92,-73.67 81.76,0.9 121.29,38.64 121.29,92.53 -0.9,57.5 -43.13,73.68 -101.51,87.15 l -61.99,15.27 c -69.18,16.17 -116.8,43.13 -116.8,111.4 0,72.77 65.59,112.3 147.34,113.2 70.07,0 115.88,-28.75 145.54,-64.69 l -20.67,-26.04"
             style="fill:#231f20;fill-opacity:1;fill-rule:nonzero;stroke:none;stroke-width:4.00779486"
             id="path4509-6"
             inkscape:connector-curvature="0" />
          <path
             d="m 4910.02,4148.67 h -33.24 v 81.76 h 33.24 z m 0,-507.58 h -33.24 v 427.62 h 33.24 v -427.62"
             style="fill:#231f20;fill-opacity:1;fill-rule:nonzero;stroke:none;stroke-width:4.00779486"
             id="path4511"
             inkscape:connector-curvature="0" />
          <path
             d="m 5243.98,3652.77 c -17.97,-11.68 -48.52,-20.67 -74.56,-20.67 -25.16,0 -47.62,7.19 -60.2,26.06 -9.88,14.38 -14.38,30.54 -14.38,70.07 v 309.94 h -86.24 v 30.54 h 86.24 v 164.42 l 33.24,7.18 v -171.6 h 106.02 v -30.54 h -106.02 v -309.04 c 0,-22.46 1.81,-36.83 7.19,-47.62 6.29,-11.67 17.97,-18.87 40.43,-18.87 25.16,0 53.01,10.79 68.28,22.47 v -32.34"
             style="fill:#231f20;fill-opacity:1;fill-rule:nonzero;stroke:none;stroke-width:4.00779486"
             id="path4513-9"
             inkscape:connector-curvature="0" />
          <path
             d="m 5330.89,3950.13 c -0.91,87.14 68.27,128.47 153.61,128.47 43.13,0 92.54,-8.99 121.28,-44.02 15.29,-18.87 25.16,-44.92 25.16,-86.25 v -227.28 c 0,-37.74 6.29,-58.41 42.23,-58.41 11.68,0 20.66,1.81 28.74,4.5 v -26.95 c -7.19,-2.7 -22.46,-5.39 -37.73,-5.39 -41.32,0 -63.78,17.97 -63.78,63.79 0,5.38 0,10.77 0.89,17.07 h -0.89 c -18.87,-44.03 -63.78,-85.35 -146.44,-85.35 -91.63,0 -136.55,57.49 -136.55,129.37 0,32.34 10.78,60.18 32.34,79.95 23.36,21.56 59.29,35.04 108.7,43.12 l 116.79,19.77 c 20.67,3.59 25.16,8.08 25.16,25.15 v 14.38 c 0,73.66 -35.94,107.8 -117.69,107.8 -87.14,0 -122.19,-43.12 -122.19,-115.89 z m 269.51,-67.38 c -6.29,-4.49 -28.75,-8.98 -59.29,-14.37 l -64.69,-11.68 c -60.19,-10.78 -123.97,-24.26 -123.97,-97.02 0,-63.79 44.01,-100.62 110.5,-100.62 89.83,0 137.45,70.97 137.45,144.64 z m -203.8,347.68 h 34.01 v -81.76 h -34.01 z m 162.48,0 h 33.99 v -81.76 h -33.99 v 81.76"
             style="fill:#231f20;fill-opacity:1;fill-rule:nonzero;stroke:none;stroke-width:4.00779486"
             id="path4515"
             inkscape:connector-curvature="0" />
          <path
             d="m 5966.71,3652.77 c -17.97,-11.68 -48.51,-20.67 -74.57,-20.67 -25.15,0 -47.62,7.19 -60.19,26.06 -9.89,14.38 -14.38,30.54 -14.38,70.07 v 309.94 h -86.24 v 30.54 h 86.24 v 164.42 l 33.24,7.18 v -171.6 h 106.02 v -30.54 h -106.02 v -309.04 c 0,-22.46 1.81,-36.83 7.19,-47.62 6.29,-11.67 17.97,-18.87 40.43,-18.87 25.16,0 53.01,10.79 68.28,22.47 v -32.34"
             style="fill:#231f20;fill-opacity:1;fill-rule:nonzero;stroke:none;stroke-width:4.00779486"
             id="path4517"
             inkscape:connector-curvature="0" />
          <path
             d="m 3166.48,2834.66 h -42.58 l -243.99,347.91 -141.95,-144.88 v -203.03 h -33.62 v 610.9 h 33.62 v -361.15 l 363.08,361.15 h 44.79 l -239.88,-239.87 260.53,-371.03"
             style="fill:#231f20;fill-opacity:1;fill-rule:nonzero;stroke:none;stroke-width:4.00779486"
             id="path4519"
             inkscape:connector-curvature="0" />
          <path
             d="m 3388.41,3273.07 c 118.58,0 189.55,-90.73 189.55,-226.39 0,-133.86 -72.77,-222.8 -189.55,-222.8 -115.9,0 -188.67,88.94 -188.67,222.8 0,135.66 70.07,226.39 188.67,226.39 z m 0,-420.44 c 92.53,0 153.61,74.56 153.61,194.94 0,123.08 -59.29,196.75 -153.61,196.75 -93.44,0 -152.73,-74.57 -152.73,-196.75 0,-121.28 61.09,-194.94 152.73,-194.94"
             style="fill:#231f20;fill-opacity:1;fill-rule:nonzero;stroke:none;stroke-width:4.00779486"
             id="path4521"
             inkscape:connector-curvature="0" />
          <path
             d="m 4004.57,2834.66 h -33.25 v 233.58 c 0,105.11 -12.57,174.28 -116.78,174.28 -44.02,0 -75.47,-16.16 -97.93,-38.63 -27.84,-29.64 -39.52,-71.87 -39.52,-110.5 v -258.73 h -33.25 v 427.63 h 33.25 v -79.95 h 0.89 c 15.28,42.21 61.09,90.73 144.64,90.73 61.09,0 98.82,-23.36 120.39,-61.99 15.27,-27.85 21.56,-64.69 21.56,-115.89 v -260.53"
             style="fill:#231f20;fill-opacity:1;fill-rule:nonzero;stroke:none;stroke-width:4.00779486"
             id="path4523"
             inkscape:connector-curvature="0" />
          <path
             d="m 4384.08,3182.34 c -29.64,38.62 -76.36,61.98 -128.47,61.98 -61.09,-0.9 -108.7,-28.75 -108.7,-81.75 0,-52.11 33.25,-70.07 97.03,-85.35 l 51.21,-12.58 c 74.56,-17.96 132.06,-42.22 132.06,-115.89 0,-78.15 -65.59,-124.87 -159.92,-124.87 -82.65,0 -142.84,41.32 -170.69,78.16 l 23.36,25.15 c 31.45,-41.32 81.75,-73.67 150.92,-73.67 81.76,0.9 121.29,38.64 121.29,92.53 -0.9,57.5 -43.13,73.68 -101.51,87.15 l -61.99,15.28 c -69.18,16.16 -116.8,43.12 -116.8,111.4 0,72.76 65.59,112.29 147.34,113.19 70.07,0 115.88,-28.75 145.54,-64.68 l -20.67,-26.05"
             style="fill:#231f20;fill-opacity:1;fill-rule:nonzero;stroke:none;stroke-width:4.00779486"
             id="path4525"
             inkscape:connector-curvature="0" />
          <path
             d="m 4713,2846.34 c -17.97,-11.68 -48.53,-20.66 -74.58,-20.66 -25.14,0 -47.61,7.18 -60.19,26.05 -9.88,14.38 -14.37,30.54 -14.37,70.07 v 309.95 h -86.24 v 30.54 h 86.24 v 164.41 l 33.24,7.18 v -171.59 h 106.01 v -30.54 H 4597.1 V 2922.7 c 0,-22.46 1.79,-36.83 7.19,-47.62 6.29,-11.67 17.97,-18.86 40.42,-18.86 25.16,0 53,10.78 68.29,22.46 v -32.34"
             style="fill:#231f20;fill-opacity:1;fill-rule:nonzero;stroke:none;stroke-width:4.00779486"
             id="path4527"
             inkscape:connector-curvature="0" />
          <path
             d="m 4796.03,3143.7 c -0.9,87.15 68.27,128.47 153.61,128.47 43.13,0 92.54,-8.99 121.29,-44.02 15.28,-18.87 25.16,-44.92 25.16,-86.24 v -227.29 c 0,-37.74 6.28,-58.4 42.22,-58.4 11.68,0 20.67,1.8 28.75,4.49 v -26.95 c -7.19,-2.7 -22.46,-5.39 -37.73,-5.39 -41.33,0 -63.79,17.97 -63.79,63.79 0,5.39 0,10.77 0.89,17.07 h -0.89 c -18.87,-44.03 -63.78,-85.35 -146.43,-85.35 -91.63,0 -136.56,57.5 -136.56,129.37 0,32.34 10.78,60.18 32.34,79.95 23.36,21.56 59.29,35.04 108.71,43.12 l 116.78,19.77 c 20.67,3.59 25.16,8.08 25.16,25.15 v 14.38 c 0,73.66 -35.93,107.8 -117.69,107.8 -87.14,0 -122.18,-43.12 -122.18,-115.89 z m 269.51,-67.38 c -6.28,-4.48 -28.75,-8.98 -59.29,-14.37 l -64.68,-11.68 c -60.2,-10.78 -123.98,-24.25 -123.98,-97.02 0,-63.79 44.02,-100.62 110.5,-100.62 89.83,0 137.45,70.97 137.45,144.64 v 79.05"
             style="fill:#231f20;fill-opacity:1;fill-rule:nonzero;stroke:none;stroke-width:4.00779486"
             id="path4529"
             inkscape:connector-curvature="0" />
          <path
             d="m 5573.65,2834.66 h -33.24 v 233.58 c 0,105.11 -12.57,174.28 -116.79,174.28 -44.02,0 -75.46,-16.16 -97.91,-38.63 -27.86,-29.64 -39.54,-71.87 -39.54,-110.5 v -258.73 h -33.24 v 427.63 h 33.24 v -79.95 h 0.9 c 15.27,42.21 61.09,90.73 144.64,90.73 61.09,0 98.82,-23.36 120.38,-61.99 15.27,-27.85 21.56,-64.69 21.56,-115.89 v -260.53"
             style="fill:#231f20;fill-opacity:1;fill-rule:nonzero;stroke:none;stroke-width:4.00779486"
             id="path4531"
             inkscape:connector-curvature="0" />
          <path
             d="m 5972.79,2834.66 h -308.15 v 25.15 l 249.76,371.94 h -241.67 v 30.54 h 281.2 l 0.89,-25.16 -251.55,-371.93 h 269.52 v -30.54"
             style="fill:#231f20;fill-opacity:1;fill-rule:nonzero;stroke:none;stroke-width:4.00779486"
             id="path4533"
             inkscape:connector-curvature="0" />
          <path
             d="M 6661.42,4960.63 V 2125.98 h 2834.64 v 2834.65 z m 1426.33,-17.98 h 686.17 V 4256.5 h -686.17 z m 802.36,-1935.66 v -158.85 l -98.31,0.01 h -118.32 v 158.84 h 100.34 v -158.68 h 17.98 v 158.68 z m -98.31,17.98 v 157.97 h 98.31 v -157.97 z m 0,-527.92 v 333.11 h 98.31 v -333.11 z m 98.31,-17.98 v -157.93 h -98.31 v 157.93 z m -216.63,545.9 v 157.97 h 100.34 v -157.97 z m 100.34,175.96 h -100.34 v 333.32 h 100.34 z m -101.4,351.3 -48.28,387.62 145.9,-387.62 z m -233.53,-1055.18 0.01,333.12 h 99.33 l -0.02,-333.12 z m 99.32,-17.98 -0.01,-157.93 h -99.31 v 157.93 z m -99.31,369.09 v 158.83 h 99.35 l -0.02,-158.83 z m 0,176.81 v 157.97 h 99.35 v -157.97 z m 0,175.96 0.01,333.32 h 99.36 l -0.02,-333.32 z m 3.76,351.3 144.65,385.61 -47.97,-385.61 z m 154.2,469.98 h -157.92 v 99.11 l 157.92,0.03 z m 8.99,-81.03 48.45,-388.95 h -96.84 z m -12.84,63.05 -37.3,-99.43 h -116.77 v 99.43 z M 8556.2,2479.07 h 99.3 v -157.93 h -99.31 z m 0,17.98 0.01,333.12 h 40.65 v -273.5 h 17.98 v 273.5 h 40.66 v -333.12 z m 58.64,351.11 v 62.82 h -17.98 v -62.82 h -40.65 l 0.02,158.83 h 99.27 v -158.83 z m -58.61,176.81 0.01,157.97 h 99.26 v -157.97 z m 0.01,175.96 0.02,333.32 h 99.24 v -333.32 z m 62.89,803.3 h 154.79 v -99.47 h -117.35 z m -4.29,17.98 v 99.14 l 159.08,0.03 v -99.17 z m -175.9,117.1 v 99.21 h 334.98 v -99.15 z m -351.19,99.21 h 333.21 v -99.22 l -333.21,-0.05 z m 0,-117.26 333.21,0.06 v -99.11 h -333.21 z m 0,-117.03 h 333.21 v -99.43 h -333.21 z m 0,-821.29 h 98.56 v -157.97 h -98.56 z m 0,-175.95 h 98.56 v -158.83 h -98.56 z m 0,-176.81 h 98.56 v -333.13 h -98.56 z m 0,-351.11 h 98.56 v -157.93 h -98.56 z m -704.01,2346.29 157.24,-0.02 v -99.3 h -157.25 z m -0.01,-117.31 h 157.25 v -99.34 h -157.26 z m 157.25,-117.32 v -91.68 l -137.35,91.68 z m -157.26,-8.33 136.3,-90.99 h -136.3 z m 0,-108.97 h 157.26 v -99.32 h -157.27 z m -0.01,-117.3 h 157.27 V 4256.5 H 7383.7 Z m -0.01,-117.61 h 157.28 v -99.15 H 7383.7 Z m 0,-117.13 h 333.24 l -0.01,-99.18 h -333.24 z m 333.25,117.13 -0.01,-99.15 h -157.98 v 99.15 z m -157.99,17.98 v 99.63 h 158 l -0.01,-99.63 z m -175.27,-252.27 h 333.24 v -99.43 h -333.25 z m -0.01,-117.41 h 333.24 l -0.02,-334.59 h -333.24 z m -0.06,-1056.62 151.72,-0.01 -151.74,-303.15 z m 166.12,-11.42 161.56,-321.73 H 7388.7 Z M 6855.27,4708.04 H 7013 l 0.02,-99.33 -157.75,-0.03 z m 0,-117.35 157.76,0.04 0.02,-99.32 h -157.78 z m 0,-117.26 h 157.79 l 0.02,-99.32 h -157.81 z m 0,-117.3 h 157.82 l 0.02,-99.63 h -157.84 z m 0,-117.61 h 157.84 l 0.03,-99.02 h -157.87 z m -175.87,704.13 h 157.89 v -99.33 H 6679.4 Z m 0,-117.31 h 157.89 v -99.32 H 6679.4 Z m 0,-117.3 h 157.89 v -99.36 l -157.89,-0.04 z m 0,-117.39 157.89,0.04 v -99.28 H 6679.4 Z m 0,-117.22 h 157.89 v -99.32 H 6679.4 Z m 0,-117.3 h 157.89 V 4256.5 H 6679.4 Z m 0,-117.61 h 157.89 V 4139.5 H 6679.4 Z m 0,-117.01 h 333.74 l 0.05,-216.71 H 6679.4 Z m 4.09,-1977.55 c 25.34,74.71 91.39,125.39 163.5,125.26 78.88,-0.47 145.05,-51.5 164.18,-125.26 z m 329.66,44.45 c -31.43,59.62 -93.95,98.36 -166.06,98.79 -0.31,0.01 -0.61,0.01 -0.92,0.01 -69.47,0 -133.16,-42.27 -166.77,-107.07 v 123.02 h 333.75 z m 20.73,-44.45 c 24.9,74.62 91.64,125.47 164.53,125.26 79.41,-0.56 145.99,-51.58 165.18,-125.26 z m 331.71,44.26 c -31.54,59.66 -94.45,98.48 -167.07,98.98 -0.3,0.01 -0.57,0.01 -0.87,0.01 -69.26,0 -132.67,-41.11 -166.52,-104.29 v 120.24 h 334.47 z m 0.01,132.92 h -686.2 v 509.07 l 686.23,-0.01 z m 0.03,527.04 -686.23,0.02 v 686.05 h 686.28 z m 0.05,704.05 H 6679.4 v 334.59 h 686.3 z m 0.02,352.57 h -334.52 l -0.03,99.43 h 334.55 z m 0,117.41 h -334.55 l -0.05,208.95 166.9,-111.47 167.72,111.92 z m -313.24,216.31 h 291.21 L 7198,4141.31 Z m 313.26,17.98 h -334.63 l -0.02,99.63 h 334.65 z m 0,117.61 h -334.65 l -0.03,99.32 h 334.69 z m 0.01,117.3 h -334.69 l -0.08,326.46 334.78,-223.47 z m 0.01,124.61 -137.86,92.03 h 137.87 z m 0.01,110.02 h -164.82 l -148.84,99.35 313.66,-0.03 z m 0,117.3 -352.78,0.04 0.03,-117.36 h -157.73 v 216.63 h 510.49 z m 20.54,-2699.38 c 24.98,75.7 89.23,125.68 162.92,125.68 0.32,0 0.64,0 0.95,0 78.69,-0.39 144.89,-51.53 164.54,-125.68 z m 330.76,43.49 c -31.54,60.51 -94.38,99.82 -166.79,100.18 -0.35,0 -0.71,0 -1.06,0 -69.9,0 -132.02,-40.29 -165.62,-104.11 v 119.64 h 333.47 z m 0,133.69 h -333.46 l 0.01,157.93 h 333.45 z m 0,204.54 -152.92,304.51 h 152.92 z m 20.87,-381.72 c 25.24,75.36 89.09,125.05 162.12,125.05 0.29,0 0.58,0 0.87,0 78.58,-0.5 146.93,-52.46 166.55,-125.05 z m 331.85,42.63 c -32,59.87 -96.46,99.94 -168.75,100.4 -0.32,0 -0.65,0 -0.97,0 -69.51,0 -131.39,-40.28 -165.01,-104.1 v 120.27 h 334.73 z m 0,134.55 h -334.73 v 157.93 h 334.73 z m -334.73,205.2 v 303.85 l 151.88,-0.01 z m 166.42,292.71 161.26,-322 H 7740.5 Z m 168.31,-295.91 -153.78,307.04 h 153.78 z m 0,325.02 -686.15,0.02 0.04,686.07 h 686.11 z m 0,704.07 h -334.88 v 100.06 h 334.88 z m 0,118.04 h -334.88 l 0.01,99.33 h 334.87 z m 0,117.31 H 7734.9 l 0.01,99.24 h 334.86 z m 0,117.22 h -334.86 l 0.01,99.43 h 334.85 z m 0,117.41 h -334.85 l 0.01,208.59 167.14,-111.17 167.7,112.37 z m -313.95,216.31 h 291.35 l -145.13,-97.26 z m 313.95,17.98 h -334.83 v 99.63 h 334.83 z m -334.83,117.61 0.02,208.8 312.7,-208.8 z m 334.83,6.86 -352.79,235.57 -0.02,-242.43 h -158 v 469.21 l -175.22,0.02 v 99.31 h 686.03 z M 8420.9,2143.96 h -333.15 v 159.2 h 333.15 z m -117.29,863.03 v -158.83 h -40.84 v 62.93 h -17.98 v -62.93 h -40.5 v 158.83 z m -99.32,17.98 v 157.97 h 99.32 v -157.97 z m 40.5,-194.79 v -273.13 h 17.98 v 273.13 l 40.84,-0.01 v -333.12 h -99.32 v 333.13 z m 58.82,-351.11 v -157.93 h -99.32 v 157.93 z m 117.29,-157.93 h -99.31 v 157.93 h 99.31 z m 0,175.91 h -99.31 v 333.12 h 99.32 z m 0.01,351.11 h -99.32 v 158.83 h 99.33 z m 0.01,176.81 h -99.33 v 157.97 h 99.33 z m 0,175.96 h -99.33 v 113.02 h -17.98 v -113.02 h -99.32 v 113.02 h -17.98 v -113.02 h -98.56 v 333.32 h 333.18 z m 0.01,351.3 h -333.18 v 334.59 h 461.21 l -110.05,-293.36 v 67.82 h -17.98 z m 352.89,-1408.27 h -334.93 v 159.2 h 334.93 z m 0,177.18 h -100.34 v 157.93 h 100.34 z m 0,175.91 h -100.34 v 333.12 l 100.34,-0.01 z m 350.88,-353.09 h -332.9 v 159.2 h 332.9 z m -117.3,863.03 v -158.85 h -40.67 v 62.95 h -17.98 v -62.95 h -40.66 v 158.85 z m -99.31,17.98 v 157.97 h 99.31 v -157.97 z m 40.66,-194.81 v -273.18 h 17.98 v 273.18 h 40.67 v -333.11 h -99.31 v 333.11 z m 58.65,-351.09 v -157.93 h -99.31 v 157.93 z m 117.3,-157.93 h -99.32 v 157.93 h 99.32 z m 0,175.91 h -99.32 v 333.11 l 99.32,-0.01 z m 0,351.09 h -99.32 v 158.85 h 99.32 z m 0,176.83 h -99.32 v 157.97 h 99.32 z m 0,175.96 h -99.32 v 113.02 h -17.98 v -113.02 h -99.31 v 113.02 h -17.98 v -113.02 h -98.31 v 333.32 h 332.9 z m 0,351.3 h -332.9 v 109 h -17.98 v -67.96 l -110.48,293.51 h 461.36 z m 0,352.53 h -332.8 v 99.47 h 332.8 z m 0,117.45 h -332.8 v 207.69 l 164.72,-110.22 168.08,112.47 z m -313.32,216.31 h 290.48 l -145.24,-97.2 z m 666.7,-2094.56 h -335.4 v 159.2 h 335.4 z m 0,177.18 h -335.4 v 157.93 h 335.4 z m 0,175.91 h -335.4 v 333.1 h 335.4 z m -335.4,380.57 v 305.32 h 150.99 z m 165.56,294.22 161.32,-323.71 -321.39,0.01 z m 169.84,-300.48 -155.28,311.58 h 155.28 z m 0,329.57 h -335.4 v 333.32 h 335.4 z m 0,351.3 h -335.4 v 217.37 h 335.4 z m 0,235.35 h -335.4 v 99.2 h 335.4 z m 0,117.18 h -335.4 v 99.47 h 335.4 z m 0,117.45 h -335.4 v 99.3 h 335.4 z m 0,117.29 h -335.4 v 99.02 h 335.4 z m 0,117 H 8791.9 v 686.15 h 686.18 V 4256.5"
             style="fill:#231f20;fill-opacity:1;fill-rule:nonzero;stroke:none;stroke-width:4.00779486"
             id="path4535"
             inkscape:connector-curvature="0" />
        </g>
      </g>
    </g>
    <g
       id="g4566">
      <g
         transform="matrix(0.56449855,0,0,0.25867409,-189.83364,77.437962)"
         id="g4515"
         clip-path="url(#clip3)"
         style="clip-rule:nonzero;fill:#8e0505;fill-opacity:1;stroke-width:0.92319483">
        <path
           id="path4513"
           d="m 603.78125,-28.480469 h 14.17187 V 887.37891 h -14.17187 z m 0,0"
           style="fill:#8e0505;fill-opacity:1;fill-rule:nonzero;stroke:none;stroke-width:0.92319483"
           inkscape:connector-curvature="0" />
      </g>
      <text
         transform="rotate(-90)"
         xml:space="preserve"
         style="font-style:normal;font-weight:normal;font-size:6.47255087px;line-height:1.25;font-family:sans-serif;letter-spacing:0px;word-spacing:0px;fill:#ffffff;fill-opacity:1;stroke:none;stroke-width:0.37115198"
         x="-247.49994"
         y="156.84024"
         id="text5561-5"><tspan
           sodipodi:role="line"
           x="-247.49994"
           y="156.84024"
           style="font-style:normal;font-variant:normal;font-weight:normal;font-stretch:normal;font-size:4.90921974px;font-family:Tahoma;-inkscape-font-specification:Tahoma;text-align:start;text-anchor:start;fill:#ffffff;fill-opacity:1;stroke-width:0.37115198"
           id="tspan5563-3">Current-Induced Switching in Superconducting Break Junctions</tspan></text>
      <text
         transform="rotate(-90)"
         xml:space="preserve"
         style="font-style:normal;font-weight:normal;font-size:6.47255087px;line-height:1.25;font-family:sans-serif;letter-spacing:0px;word-spacing:0px;fill:#ffffff;fill-opacity:1;stroke:none;stroke-width:0.37115198"
         x="-287.8913"
         y="156.84024"
         id="text5561-5-1"><tspan
           sodipodi:role="line"
           x="-287.8913"
           y="156.84024"
           style="font-style:normal;font-variant:normal;font-weight:bold;font-stretch:normal;font-size:4.90921974px;font-family:Tahoma;-inkscape-font-specification:'Tahoma Bold';text-align:start;text-anchor:start;fill:#ffffff;fill-opacity:1;stroke-width:0.37115198"
           id="tspan5563-3-2">David Weber</tspan></text>
      <text
         transform="rotate(-90)"
         xml:space="preserve"
         style="font-style:normal;font-weight:normal;font-size:6.47255087px;line-height:1.25;font-family:sans-serif;letter-spacing:0px;word-spacing:0px;fill:#ffffff;fill-opacity:1;stroke:none;stroke-width:0.37115198"
         x="-102.18219"
         y="156.84024"
         id="text5561-5-1-6"><tspan
           sodipodi:role="line"
           x="-102.18219"
           y="156.84024"
           style="font-style:normal;font-variant:normal;font-weight:bold;font-stretch:normal;font-size:4.90921974px;font-family:Tahoma;-inkscape-font-specification:'Tahoma Bold';text-align:start;text-anchor:start;fill:#ffffff;fill-opacity:1;stroke-width:0.37115198"
           id="tspan5563-3-2-0">2018</tspan></text>
    </g>
    <text
       xml:space="preserve"
       style="font-style:normal;font-weight:normal;font-size:27.85356712px;line-height:1.25;font-family:sans-serif;letter-spacing:0px;word-spacing:0px;fill:#000000;fill-opacity:1;stroke:none;stroke-width:0.26458332"
       x="-350.68625"
       y="71.686737"
       id="text7327"><tspan
         sodipodi:role="line"
         id="tspan7325"
         x="-350.68625"
         y="71.686737"
         style="stroke-width:0.26458332">168 Seiten Inhalt</tspan></text>
    <flowRoot
       xml:space="preserve"
       id="flowRoot7329"
       style="font-style:normal;font-weight:normal;font-size:40px;line-height:1.25;font-family:sans-serif;letter-spacing:0px;word-spacing:0px;fill:#000000;fill-opacity:1;stroke:none"
       transform="matrix(0.26458333,0,0,0.26458333,0,81)"><flowRegion
         id="flowRegion7331"><rect
           id="rect7333"
           width="694.76984"
           height="677.31335"
           x="-1365.1006"
           y="-11.061551" /></flowRegion><flowPara
         id="flowPara7335" /></flowRoot>    <text
       xml:space="preserve"
       style="font-style:normal;font-weight:normal;font-size:10.58333302px;line-height:1.25;font-family:sans-serif;letter-spacing:0px;word-spacing:0px;fill:#000000;fill-opacity:1;stroke:none;stroke-width:0.26458332"
       x="-325.15695"
       y="104.86179"
       id="text7339"><tspan
         sodipodi:role="line"
         x="-325.15695"
         y="104.86179"
         style="stroke-width:0.26458332"
         id="tspan7345">Fadenheftung</tspan><tspan
         sodipodi:role="line"
         x="-325.15695"
         y="118.09096"
         style="stroke-width:0.26458332"
         id="tspan7351">30.2+0.9=31.1</tspan><tspan
         sodipodi:role="line"
         x="-325.15695"
         y="131.32013"
         style="stroke-width:0.26458332"
         id="tspan7349">21.6</tspan></text>
    <g
       id="g4556"
       transform="translate(378.1387)">
      <path
         sodipodi:nodetypes="cc"
         inkscape:connector-curvature="0"
         id="path7213"
         d="M -3.5504505,84.132708 H 312.00431"
         style="fill:none;stroke:#000000;stroke-width:0.26458332px;stroke-linecap:butt;stroke-linejoin:miter;stroke-opacity:1" />
      <path
         sodipodi:nodetypes="cc"
         inkscape:connector-curvature="0"
         id="path7213-1-7"
         d="M 3.1322917,300.7698 V 68.333379"
         style="fill:none;stroke:#000000;stroke-width:0.26458332px;stroke-linecap:butt;stroke-linejoin:miter;stroke-opacity:1" />
      <path
         sodipodi:nodetypes="cc"
         inkscape:connector-curvature="0"
         id="path7213-1"
         d="M -4.160319,293.86771 H 318.80274"
         style="fill:none;stroke:#000000;stroke-width:0.26458332px;stroke-linecap:butt;stroke-linejoin:miter;stroke-opacity:1" />
      <path
         sodipodi:nodetypes="cc"
         inkscape:connector-curvature="0"
         id="path7213-1-7-9"
         d="M 306.86729,303.17752 V 69.817368"
         style="fill:none;stroke:#000000;stroke-width:0.26458332px;stroke-linecap:butt;stroke-linejoin:miter;stroke-opacity:1" />
    </g>
    <text
       xml:space="preserve"
       style="font-style:normal;font-weight:normal;font-size:9.55190372px;line-height:1.25;font-family:sans-serif;letter-spacing:0px;word-spacing:0px;fill:#8e0505;fill-opacity:1;stroke:none;stroke-width:1.08256602"
       x="273.44949"
       y="165.539"
       id="text7294-6"><tspan
         sodipodi:role="line"
         x="273.44949"
         y="165.539"
         id="tspan7292-2"
         style="font-size:6.89370918px;line-height:0;fill:#8e0505;fill-opacity:1;stroke-width:1.08256602"><tspan
           x="273.44949"
           y="165.539"
           style="font-style:normal;font-variant:normal;font-weight:bold;font-stretch:normal;font-size:6.89370918px;line-height:0;font-family:sans-serif;-inkscape-font-specification:'sans-serif, Bold';font-variant-ligatures:normal;font-variant-caps:normal;font-variant-numeric:normal;font-feature-settings:normal;text-align:center;writing-mode:lr-tb;text-anchor:middle;fill:#8e0505;fill-opacity:1;stroke-width:1.08256602"
           id="tspan7284-7"
           dx="0 0 0 0 0 0 0 0 0 0 0"
           dy="0 0 0 0 0 0 0 0 0 0 0">David Weber</tspan></tspan></text>
    <text
       xml:space="preserve"
       style="font-style:normal;font-weight:normal;font-size:9.55190372px;line-height:1.25;font-family:sans-serif;letter-spacing:0px;word-spacing:0px;fill:#ffffff;fill-opacity:1;stroke:none;stroke-width:1.08256602"
       x="275.05847"
       y="283.57846"
       id="text7294-6-1"><tspan
         sodipodi:role="line"
         x="275.05847"
         y="283.57846"
         id="tspan7292-2-7"
         style="font-size:6.89370918px;line-height:0;fill:#ffffff;fill-opacity:1;stroke-width:1.08256602"><tspan
           x="275.05847"
           y="283.57846"
           style="font-style:normal;font-variant:normal;font-weight:bold;font-stretch:normal;font-size:6.89370918px;line-height:0;font-family:sans-serif;-inkscape-font-specification:'sans-serif, Bold';font-variant-ligatures:normal;font-variant-caps:normal;font-variant-numeric:normal;font-feature-settings:normal;text-align:center;writing-mode:lr-tb;text-anchor:middle;fill:#ffffff;fill-opacity:1;stroke-width:1.08256602"
           id="tspan7284-7-1"
           dx="0 0 0 0 0 0 0 0 0 0 0 0"
           dy="0 0 0 0 0 0 0 0 0 0 0 0">Dissertation</tspan></tspan></text>
  </g>
</svg>
